o CameraMesh
v -12.152969 8.160042 2.424800
v -12.152969 9.484610 2.424800
v -12.152969 8.160042 1.100233
v -12.152969 9.484610 1.100233
v -10.828402 8.160042 2.424800
v -10.828402 9.484610 2.424800
v -10.828402 8.160042 1.100233
v -10.828402 9.484610 1.100233
v -11.726269 9.057909 0.468298
v -11.726269 8.586742 0.468298
v -11.255102 8.586742 0.468298
v -11.255102 9.057909 0.468298
v -12.104692 9.436332 -0.612151
v -12.104692 8.208320 -0.612151
v -10.876679 8.208320 -0.612151
v -10.876679 9.436332 -0.612151
vt 0.375000 0.000000
vt 0.625000 0.000000
vt 0.625000 0.250000
vt 0.375000 0.250000
vt 0.875000 0.500000
vt 0.625000 0.500000
vt 0.625000 0.500000
vt 0.875000 0.500000
vt 0.375000 0.500000
vt 0.625000 0.750000
vt 0.375000 0.750000
vt 0.625000 1.000000
vt 0.375000 1.000000
vt 0.125000 0.500000
vt 0.125000 0.750000
vt 0.875000 0.750000
vt 0.375000 0.500000
vt 0.125000 0.500000
vt 0.125000 0.500000
vt 0.375000 0.500000
vt 0.625000 0.250000
vt 0.375000 0.250000
vt 0.375000 0.250000
vt 0.625000 0.250000
vt 0.625000 0.500000
vt 0.875000 0.500000
vn -1.0000 0.0000 0.0000
vn 0.0000 0.8288 -0.5596
vn 1.0000 0.0000 0.0000
vn 0.0000 0.0000 1.0000
vn 0.0000 -1.0000 0.0000
vn 0.0000 1.0000 0.0000
vn 0.0000 -0.9438 0.3306
vn -0.8288 0.0000 -0.5596
vn 0.8288 0.0000 -0.5596
vn 0.0000 -0.8288 -0.5596
vn 0.0000 0.0000 -1.0000
vn 0.0000 0.9438 0.3306
vn -0.9438 0.0000 0.3306
vn 0.9438 0.0000 0.3306
usemtl None
s off
f 1/1/1 2/2/1 4/3/1 3/4/1
f 4/5/2 8/6/2 12/7/2 9/8/2
f 7/9/3 8/6/3 6/10/3 5/11/3
f 5/11/4 6/10/4 2/12/4 1/13/4
f 3/14/5 7/9/5 5/11/5 1/15/5
f 8/6/6 4/5/6 2/16/6 6/10/6
f 11/17/7 10/18/7 14/19/7 15/20/7
f 3/4/8 4/3/8 9/21/8 10/22/8
f 8/6/9 7/9/9 11/17/9 12/7/9
f 7/9/10 3/14/10 10/18/10 11/17/10
f 14/23/11 13/24/11 16/25/11 15/20/11
f 9/8/12 12/7/12 16/25/12 13/26/12
f 10/22/13 9/21/13 13/24/13 14/23/13
f 12/7/14 11/17/14 15/20/14 16/25/14
